<?xml version="1.0" encoding="UTF-8" standalone="no"?>
<!DOCTYPE svg PUBLIC "-//W3C//DTD SVG 1.1//EN"
 "http://www.w3.org/Graphics/SVG/1.1/DTD/svg11.dtd">
<!-- Generated by graphviz version 14.1.5 (20260411.2331)
 -->
<!-- Title: SwiftSdkArchitecture Pages: 1 -->
<svg width="687pt" height="502pt"
 viewBox="0.00 0.00 687.00 502.00" xmlns="http://www.w3.org/2000/svg" xmlns:xlink="http://www.w3.org/1999/xlink">
<g id="graph0" class="graph" transform="scale(1 1) rotate(0) translate(25.2 483.87)">
<title>SwiftSdkArchitecture</title>
<g id="clust1" class="cluster">
<title>cluster_runtime</title>
<path fill="#0f172a" stroke="#334155" d="M20,-8C20,-8 617,-8 617,-8 623,-8 629,-14 629,-20 629,-20 629,-255.53 629,-255.53 629,-261.53 623,-267.53 617,-267.53 617,-267.53 20,-267.53 20,-267.53 14,-267.53 8,-261.53 8,-255.53 8,-255.53 8,-20 8,-20 8,-14 14,-8 20,-8"/>
<text xml:space="preserve" text-anchor="start" x="24" y="-245.13" font-family="TT Commons Pro Trial" font-weight="bold" font-size="12.00" fill="#94a3b8">ARCPRuntime</text>
</g>
<g id="clust2" class="cluster">
<title>cluster_transport</title>
<path fill="#1e293b" stroke="#334155" d="M167,-294.78C167,-294.78 473,-294.78 473,-294.78 479,-294.78 485,-300.78 485,-306.78 485,-306.78 485,-377.78 485,-377.78 485,-383.78 479,-389.78 473,-389.78 473,-389.78 167,-389.78 167,-389.78 161,-389.78 155,-383.78 155,-377.78 155,-377.78 155,-306.78 155,-306.78 155,-300.78 161,-294.78 167,-294.78"/>
<text xml:space="preserve" text-anchor="start" x="171" y="-367.38" font-family="TT Commons Pro Trial" font-weight="bold" font-size="12.00" fill="#94a3b8">Transport</text>
</g>
<!-- Client -->
<g id="node1" class="node">
<title>Client</title>
<path fill="#3b82f6" stroke="#2563eb" stroke-width="1.4" d="M354.72,-465.87C354.72,-465.87 271.28,-465.87 271.28,-465.87 265.28,-465.87 259.28,-459.87 259.28,-453.87 259.28,-453.87 259.28,-441.03 259.28,-441.03 259.28,-435.03 265.28,-429.03 271.28,-429.03 271.28,-429.03 354.72,-429.03 354.72,-429.03 360.72,-429.03 366.72,-435.03 366.72,-441.03 366.72,-441.03 366.72,-453.87 366.72,-453.87 366.72,-459.87 360.72,-465.87 354.72,-465.87"/>
<text xml:space="preserve" text-anchor="start" x="282.25" y="-447.55" font-family="TT Commons Pro Trial" font-weight="bold" font-size="12.00" fill="white">ARCPClient</text>
<text xml:space="preserve" text-anchor="start" x="275.12" y="-438.4" font-family="TT Commons Pro Trial" font-size="9.00" fill="#cbd5e1">invoke · ping · send</text>
</g>
<!-- Stdio -->
<g id="node10" class="node">
<title>Stdio</title>
<path fill="#334155" stroke="#475569" d="M328.84,-344.78C328.84,-344.78 297.16,-344.78 297.16,-344.78 291.16,-344.78 285.16,-338.78 285.16,-332.78 285.16,-332.78 285.16,-320.78 285.16,-320.78 285.16,-314.78 291.16,-308.78 297.16,-308.78 297.16,-308.78 328.84,-308.78 328.84,-308.78 334.84,-308.78 340.84,-314.78 340.84,-320.78 340.84,-320.78 340.84,-332.78 340.84,-332.78 340.84,-338.78 334.84,-344.78 328.84,-344.78"/>
<text xml:space="preserve" text-anchor="middle" x="313" y="-323.45" font-family="TT Commons Pro Trial" font-size="11.00" fill="#f1f5f9">Stdio</text>
</g>
<!-- Client&#45;&gt;Stdio -->
<g id="edge3" class="edge">
<title>Client&#45;&gt;Stdio</title>
<path fill="none" stroke="#94a3b8" stroke-width="1.2" d="M313,-419.29C313,-412.9 313,-405.81 313,-398.47"/>
<polygon fill="#94a3b8" stroke="#94a3b8" stroke-width="1.2" points="310.38,-419.11 313,-426.61 315.63,-419.11 310.38,-419.11"/>
<polygon fill="#94a3b8" stroke="#94a3b8" stroke-width="1.2" points="313,-391.24 316.38,-398.74 313.1,-393.53 313.1,-398.74 313,-398.74 312.9,-398.74 312.9,-393.53 309.63,-398.74 313,-391.24"/>
<text xml:space="preserve" text-anchor="middle" x="351.25" y="-400.48" font-family="TT Commons Pro Trial" font-size="9.00" fill="#94a3b8">envelope (RFC §6.1)</text>
</g>
<!-- Runtime -->
<g id="node2" class="node">
<title>Runtime</title>
<path fill="#f59e0b" stroke="#d97706" stroke-width="1.4" d="M334.09,-222.53C334.09,-222.53 291.91,-222.53 291.91,-222.53 285.91,-222.53 279.91,-216.53 279.91,-210.53 279.91,-210.53 279.91,-198.53 279.91,-198.53 279.91,-192.53 285.91,-186.53 291.91,-186.53 291.91,-186.53 334.09,-186.53 334.09,-186.53 340.09,-186.53 346.09,-192.53 346.09,-198.53 346.09,-198.53 346.09,-210.53 346.09,-210.53 346.09,-216.53 340.09,-222.53 334.09,-222.53"/>
<text xml:space="preserve" text-anchor="start" x="295.75" y="-201.63" font-family="TT Commons Pro Trial" font-weight="bold" font-size="12.00" fill="white">Server</text>
</g>
<!-- EventLog -->
<g id="node3" class="node">
<title>EventLog</title>
<path fill="#1e293b" stroke="#475569" d="M93.72,-141.3C93.72,-143.63 77.71,-145.53 58,-145.53 38.29,-145.53 22.28,-143.63 22.28,-141.3 22.28,-141.3 22.28,-103.23 22.28,-103.23 22.28,-100.9 38.29,-99 58,-99 77.71,-99 93.72,-100.9 93.72,-103.23 93.72,-103.23 93.72,-141.3 93.72,-141.3"/>
<path fill="none" stroke="#475569" d="M93.72,-141.3C93.72,-138.97 77.71,-137.07 58,-137.07 38.29,-137.07 22.28,-138.97 22.28,-141.3"/>
<text xml:space="preserve" text-anchor="start" x="38.12" y="-122.76" font-family="TT Commons Pro Trial" font-size="10.00" fill="#f1f5f9">EventLog</text>
<text xml:space="preserve" text-anchor="start" x="46.75" y="-114.66" font-family="TT Commons Pro Trial" font-size="8.00" fill="#64748b">SQLite</text>
</g>
<!-- Runtime&#45;&gt;EventLog -->
<g id="edge6" class="edge">
<title>Runtime&#45;&gt;EventLog</title>
<path fill="none" stroke="#475569" d="M279.3,-196.01C237.69,-186.29 165.06,-167.94 105,-145.53 104,-145.16 102.99,-144.77 101.98,-144.37"/>
<polygon fill="#475569" stroke="#475569" points="95.3,-141.61 103.52,-141.36 97.64,-142.58 102.23,-144.48 102.23,-144.48 102.23,-144.48 97.64,-142.58 100.94,-147.6 95.3,-141.61"/>
</g>
<!-- SubMgr -->
<g id="node4" class="node">
<title>SubMgr</title>
<path fill="#334155" stroke="#475569" d="M235.72,-140.26C235.72,-140.26 128.28,-140.26 128.28,-140.26 122.28,-140.26 116.28,-134.26 116.28,-128.26 116.28,-128.26 116.28,-116.26 116.28,-116.26 116.28,-110.27 122.28,-104.27 128.28,-104.27 128.28,-104.27 235.72,-104.27 235.72,-104.27 241.72,-104.27 247.72,-110.27 247.72,-116.27 247.72,-116.27 247.72,-128.26 247.72,-128.26 247.72,-134.26 241.72,-140.26 235.72,-140.26"/>
<text xml:space="preserve" text-anchor="middle" x="182" y="-118.94" font-family="TT Commons Pro Trial" font-size="11.00" fill="#f1f5f9">SubscriptionManager</text>
</g>
<!-- Runtime&#45;&gt;SubMgr -->
<g id="edge7" class="edge">
<title>Runtime&#45;&gt;SubMgr</title>
<path fill="none" stroke="#475569" d="M284.25,-185.92C264.58,-173.86 238.37,-157.8 217.41,-144.96"/>
<polygon fill="#475569" stroke="#475569" points="211.27,-141.2 219.43,-142.24 213.43,-142.52 217.67,-145.12 217.67,-145.12 217.67,-145.12 213.43,-142.52 215.9,-148 211.27,-141.2"/>
</g>
<!-- Artifacts -->
<g id="node5" class="node">
<title>Artifacts</title>
<path fill="#1e293b" stroke="#475569" d="M355.09,-141.3C355.09,-143.63 336.22,-145.53 313,-145.53 289.78,-145.53 270.91,-143.63 270.91,-141.3 270.91,-141.3 270.91,-103.23 270.91,-103.23 270.91,-100.9 289.78,-99 313,-99 336.22,-99 355.09,-100.9 355.09,-103.23 355.09,-103.23 355.09,-141.3 355.09,-141.3"/>
<path fill="none" stroke="#475569" d="M355.09,-141.3C355.09,-138.97 336.22,-137.07 313,-137.07 289.78,-137.07 270.91,-138.97 270.91,-141.3"/>
<text xml:space="preserve" text-anchor="start" x="286.75" y="-122.76" font-family="TT Commons Pro Trial" font-size="10.00" fill="#f1f5f9">ArtifactStore</text>
<text xml:space="preserve" text-anchor="start" x="291.25" y="-114.66" font-family="TT Commons Pro Trial" font-size="8.00" fill="#64748b">SQLite blobs</text>
</g>
<!-- Runtime&#45;&gt;Artifacts -->
<g id="edge8" class="edge">
<title>Runtime&#45;&gt;Artifacts</title>
<path fill="none" stroke="#475569" d="M313,-186.11C313,-176.8 313,-165.05 313,-154.24"/>
<polygon fill="#475569" stroke="#475569" points="313,-147.06 316.38,-154.56 313,-149.59 313,-154.56 313,-154.56 313,-154.56 313,-149.59 309.63,-154.56 313,-147.06"/>
</g>
<!-- JobMgr -->
<g id="node6" class="node">
<title>JobMgr</title>
<path fill="#334155" stroke="#475569" d="M457.47,-140.26C457.47,-140.26 390.53,-140.26 390.53,-140.26 384.53,-140.26 378.53,-134.26 378.53,-128.26 378.53,-128.26 378.53,-116.26 378.53,-116.26 378.53,-110.27 384.53,-104.27 390.53,-104.27 390.53,-104.27 457.47,-104.27 457.47,-104.27 463.47,-104.27 469.47,-110.27 469.47,-116.27 469.47,-116.27 469.47,-128.26 469.47,-128.26 469.47,-134.26 463.47,-140.26 457.47,-140.26"/>
<text xml:space="preserve" text-anchor="middle" x="424" y="-118.94" font-family="TT Commons Pro Trial" font-size="11.00" fill="#f1f5f9">JobManager</text>
</g>
<!-- Runtime&#45;&gt;JobMgr -->
<g id="edge5" class="edge">
<title>Runtime&#45;&gt;JobMgr</title>
<path fill="none" stroke="#475569" d="M337.36,-185.92C353.81,-174.02 375.66,-158.22 393.3,-145.47"/>
<polygon fill="#475569" stroke="#475569" points="399.09,-141.28 394.99,-148.41 397.04,-142.76 393.01,-145.67 393.01,-145.67 393.01,-145.67 397.04,-142.76 391.04,-142.94 399.09,-141.28"/>
</g>
<!-- Auth -->
<g id="node8" class="node">
<title>Auth</title>
<path fill="#334155" stroke="#475569" d="M603.22,-140.26C603.22,-140.26 504.78,-140.26 504.78,-140.26 498.78,-140.26 492.78,-134.26 492.78,-128.26 492.78,-128.26 492.78,-116.26 492.78,-116.26 492.78,-110.27 498.78,-104.27 504.78,-104.27 504.78,-104.27 603.22,-104.27 603.22,-104.27 609.22,-104.27 615.22,-110.27 615.22,-116.27 615.22,-116.27 615.22,-128.26 615.22,-128.26 615.22,-134.26 609.22,-140.26 603.22,-140.26"/>
<text xml:space="preserve" text-anchor="middle" x="554" y="-118.94" font-family="TT Commons Pro Trial" font-size="11.00" fill="#f1f5f9">Auth (Bearer | JWT)</text>
</g>
<!-- Runtime&#45;&gt;Auth -->
<g id="edge9" class="edge">
<title>Runtime&#45;&gt;Auth</title>
<path fill="none" stroke="#475569" d="M346.76,-192.28C384.77,-179.63 447.27,-158.81 493.71,-143.35"/>
<polygon fill="#475569" stroke="#475569" points="500.73,-141.01 494.68,-146.58 498.33,-141.81 493.62,-143.38 493.62,-143.38 493.62,-143.38 498.33,-141.81 492.55,-140.17 500.73,-141.01"/>
</g>
<!-- Pending -->
<g id="node7" class="node">
<title>Pending</title>
<path fill="#334155" stroke="#475569" d="M466.09,-58C466.09,-58 381.91,-58 381.91,-58 375.91,-58 369.91,-52 369.91,-46 369.91,-46 369.91,-34 369.91,-34 369.91,-28 375.91,-22 381.91,-22 381.91,-22 466.09,-22 466.09,-22 472.09,-22 478.09,-28 478.09,-34 478.09,-34 478.09,-46 478.09,-46 478.09,-52 472.09,-58 466.09,-58"/>
<text xml:space="preserve" text-anchor="middle" x="424" y="-36.67" font-family="TT Commons Pro Trial" font-size="11.00" fill="#f1f5f9">PendingRegistry</text>
</g>
<!-- JobMgr&#45;&gt;Pending -->
<g id="edge10" class="edge">
<title>JobMgr&#45;&gt;Pending</title>
<path fill="none" stroke="#475569" d="M424,-103.85C424,-93.02 424,-78.89 424,-66.77"/>
<polygon fill="#475569" stroke="#475569" points="424,-59.6 427.38,-67.1 424,-62.13 424,-67.1 424,-67.1 424,-67.1 424,-62.13 420.63,-67.1 424,-59.6"/>
</g>
<!-- Memory -->
<g id="node9" class="node">
<title>Memory</title>
<path fill="#334155" stroke="#475569" d="M227.34,-344.78C227.34,-344.78 180.66,-344.78 180.66,-344.78 174.66,-344.78 168.66,-338.78 168.66,-332.78 168.66,-332.78 168.66,-320.78 168.66,-320.78 168.66,-314.78 174.66,-308.78 180.66,-308.78 180.66,-308.78 227.34,-308.78 227.34,-308.78 233.34,-308.78 239.34,-314.78 239.34,-320.78 239.34,-320.78 239.34,-332.78 239.34,-332.78 239.34,-338.78 233.34,-344.78 227.34,-344.78"/>
<text xml:space="preserve" text-anchor="middle" x="204" y="-323.45" font-family="TT Commons Pro Trial" font-size="11.00" fill="#f1f5f9">Memory</text>
</g>
<!-- Memory&#45;&gt;Stdio -->
<!-- Stdio&#45;&gt;Runtime -->
<g id="edge4" class="edge">
<title>Stdio&#45;&gt;Runtime</title>
<path fill="none" stroke="#94a3b8" stroke-width="1.2" d="M313,-285.79C313,-268.05 313,-247.67 313,-231.89"/>
<polygon fill="#94a3b8" stroke="#94a3b8" stroke-width="1.2" points="310.38,-285.47 313,-292.97 315.63,-285.47 310.38,-285.47"/>
<polygon fill="#94a3b8" stroke="#94a3b8" stroke-width="1.2" points="313,-224.5 316.38,-232 313.1,-226.79 313.1,-232 313,-232 312.9,-232 312.9,-226.79 309.63,-232 313,-224.5"/>
<text xml:space="preserve" text-anchor="middle" x="331" y="-278.23" font-family="TT Commons Pro Trial" font-size="9.00" fill="#94a3b8">envelope</text>
</g>
<!-- Ws -->
<g id="node11" class="node">
<title>Ws</title>
<path fill="#334155" stroke="#475569" d="M459.47,-344.78C459.47,-344.78 398.53,-344.78 398.53,-344.78 392.53,-344.78 386.53,-338.78 386.53,-332.78 386.53,-332.78 386.53,-320.78 386.53,-320.78 386.53,-314.78 392.53,-308.78 398.53,-308.78 398.53,-308.78 459.47,-308.78 459.47,-308.78 465.47,-308.78 471.47,-314.78 471.47,-320.78 471.47,-320.78 471.47,-332.78 471.47,-332.78 471.47,-338.78 465.47,-344.78 459.47,-344.78"/>
<text xml:space="preserve" text-anchor="middle" x="429" y="-323.45" font-family="TT Commons Pro Trial" font-size="11.00" fill="#f1f5f9">WebSocket</text>
</g>
<!-- Stdio&#45;&gt;Ws -->
</g>
</svg>
