<?xml version="1.0" encoding="UTF-8" standalone="no"?>
<!DOCTYPE svg PUBLIC "-//W3C//DTD SVG 1.1//EN"
 "http://www.w3.org/Graphics/SVG/1.1/DTD/svg11.dtd">
<!-- Generated by graphviz version 14.1.5 (20260411.2331)
 -->
<!-- Title: ARCPTargets Pages: 1 -->
<svg width="392pt" height="260pt"
 viewBox="0.00 0.00 392.00 260.00" xmlns="http://www.w3.org/2000/svg" xmlns:xlink="http://www.w3.org/1999/xlink">
<g id="graph0" class="graph" transform="scale(1 1) rotate(0) translate(4 256)">
<title>ARCPTargets</title>
<polygon fill="white" stroke="none" points="-4,4 -4,-256 388,-256 388,4 -4,4"/>
<!-- ARCPCore -->
<g id="node1" class="node">
<title>ARCPCore</title>
<path fill="none" stroke="black" d="M372,-198C372,-198 316.25,-198 316.25,-198 310.25,-198 304.25,-192 304.25,-186 304.25,-186 304.25,-174 304.25,-174 304.25,-168 310.25,-162 316.25,-162 316.25,-162 372,-162 372,-162 378,-162 384,-168 384,-174 384,-174 384,-186 384,-186 384,-192 378,-198 372,-198"/>
<text xml:space="preserve" text-anchor="middle" x="344.12" y="-175.7" font-family="TT Commons Pro Trial" font-size="14.00">ARCPCore</text>
</g>
<!-- ARCPClient -->
<g id="node2" class="node">
<title>ARCPClient</title>
<path fill="none" stroke="black" d="M249.12,-238C249.12,-238 187.38,-238 187.38,-238 181.38,-238 175.38,-232 175.38,-226 175.38,-226 175.38,-214 175.38,-214 175.38,-208 181.38,-202 187.38,-202 187.38,-202 249.12,-202 249.12,-202 255.12,-202 261.12,-208 261.12,-214 261.12,-214 261.12,-226 261.12,-226 261.12,-232 255.12,-238 249.12,-238"/>
<text xml:space="preserve" text-anchor="middle" x="218.25" y="-215.7" font-family="TT Commons Pro Trial" font-size="14.00">ARCPClient</text>
</g>
<!-- ARCPClient&#45;&gt;ARCPCore -->
<g id="edge1" class="edge">
<title>ARCPClient&#45;&gt;ARCPCore</title>
<path fill="none" stroke="black" d="M261.53,-206.35C271.73,-203.05 282.72,-199.51 293.23,-196.11"/>
<polygon fill="black" stroke="black" points="294.07,-199.52 302.51,-193.12 291.92,-192.86 294.07,-199.52"/>
</g>
<!-- ARCPRuntime -->
<g id="node3" class="node">
<title>ARCPRuntime</title>
<path fill="none" stroke="black" d="M256.25,-171C256.25,-171 180.25,-171 180.25,-171 174.25,-171 168.25,-165 168.25,-159 168.25,-159 168.25,-147 168.25,-147 168.25,-141 174.25,-135 180.25,-135 180.25,-135 256.25,-135 256.25,-135 262.25,-135 268.25,-141 268.25,-147 268.25,-147 268.25,-159 268.25,-159 268.25,-165 262.25,-171 256.25,-171"/>
<text xml:space="preserve" text-anchor="middle" x="218.25" y="-148.7" font-family="TT Commons Pro Trial" font-size="14.00">ARCPRuntime</text>
</g>
<!-- ARCPRuntime&#45;&gt;ARCPCore -->
<g id="edge2" class="edge">
<title>ARCPRuntime&#45;&gt;ARCPCore</title>
<path fill="none" stroke="black" d="M268.56,-163.75C276.54,-165.49 284.82,-167.29 292.82,-169.03"/>
<polygon fill="black" stroke="black" points="291.9,-172.42 302.42,-171.13 293.39,-165.58 291.9,-172.42"/>
</g>
<!-- ARCP -->
<g id="node4" class="node">
<title>ARCP</title>
<path fill="none" stroke="black" d="M81.12,-252C81.12,-252 51.12,-252 51.12,-252 45.12,-252 39.12,-246 39.12,-240 39.12,-240 39.12,-228 39.12,-228 39.12,-222 45.12,-216 51.12,-216 51.12,-216 81.12,-216 81.12,-216 87.12,-216 93.12,-222 93.12,-228 93.12,-228 93.12,-240 93.12,-240 93.12,-246 87.12,-252 81.12,-252"/>
<text xml:space="preserve" text-anchor="middle" x="66.12" y="-229.7" font-family="TT Commons Pro Trial" font-size="14.00">ARCP</text>
</g>
<!-- ARCP&#45;&gt;ARCPClient -->
<g id="edge3" class="edge">
<title>ARCP&#45;&gt;ARCPClient</title>
<path fill="none" stroke="black" d="M93.62,-231.53C113.01,-229.72 139.97,-227.21 163.77,-224.99"/>
<polygon fill="black" stroke="black" points="164.01,-228.48 173.64,-224.07 163.36,-221.51 164.01,-228.48"/>
</g>
<!-- ARCP&#45;&gt;ARCPRuntime -->
<g id="edge4" class="edge">
<title>ARCP&#45;&gt;ARCPRuntime</title>
<path fill="none" stroke="black" d="M93.58,-224.24C105.6,-219.5 119.87,-213.44 132.25,-207 148.92,-198.33 166.57,-187.43 181.44,-177.69"/>
<polygon fill="black" stroke="black" points="183.12,-180.78 189.52,-172.33 179.25,-174.94 183.12,-180.78"/>
</g>
<!-- ARCPVapor -->
<g id="node5" class="node">
<title>ARCPVapor</title>
<path fill="none" stroke="black" d="M97,-198C97,-198 35.25,-198 35.25,-198 29.25,-198 23.25,-192 23.25,-186 23.25,-186 23.25,-174 23.25,-174 23.25,-168 29.25,-162 35.25,-162 35.25,-162 97,-162 97,-162 103,-162 109,-168 109,-174 109,-174 109,-186 109,-186 109,-192 103,-198 97,-198"/>
<text xml:space="preserve" text-anchor="middle" x="66.12" y="-175.7" font-family="TT Commons Pro Trial" font-size="14.00">ARCPVapor</text>
</g>
<!-- ARCPVapor&#45;&gt;ARCPRuntime -->
<g id="edge5" class="edge">
<title>ARCPVapor&#45;&gt;ARCPRuntime</title>
<path fill="none" stroke="black" d="M109.34,-172.41C124.14,-169.75 141.06,-166.7 157.04,-163.83"/>
<polygon fill="black" stroke="black" points="157.21,-167.35 166.43,-162.14 155.97,-160.47 157.21,-167.35"/>
</g>
<!-- ARCPHummingbird -->
<g id="node6" class="node">
<title>ARCPHummingbird</title>
<path fill="none" stroke="black" d="M120.25,-144C120.25,-144 12,-144 12,-144 6,-144 0,-138 0,-132 0,-132 0,-120 0,-120 0,-114 6,-108 12,-108 12,-108 120.25,-108 120.25,-108 126.25,-108 132.25,-114 132.25,-120 132.25,-120 132.25,-132 132.25,-132 132.25,-138 126.25,-144 120.25,-144"/>
<text xml:space="preserve" text-anchor="middle" x="66.12" y="-121.7" font-family="TT Commons Pro Trial" font-size="14.00">ARCPHummingbird</text>
</g>
<!-- ARCPHummingbird&#45;&gt;ARCPRuntime -->
<g id="edge6" class="edge">
<title>ARCPHummingbird&#45;&gt;ARCPRuntime</title>
<path fill="none" stroke="black" d="M132.54,-137.76C140.59,-139.21 148.8,-140.69 156.78,-142.12"/>
<polygon fill="black" stroke="black" points="155.91,-145.52 166.37,-143.85 157.15,-138.63 155.91,-145.52"/>
</g>
<!-- ARCPNIO -->
<g id="node7" class="node">
<title>ARCPNIO</title>
<path fill="none" stroke="black" d="M91.38,-90C91.38,-90 40.88,-90 40.88,-90 34.88,-90 28.88,-84 28.88,-78 28.88,-78 28.88,-66 28.88,-66 28.88,-60 34.88,-54 40.88,-54 40.88,-54 91.38,-54 91.38,-54 97.38,-54 103.38,-60 103.38,-66 103.38,-66 103.38,-78 103.38,-78 103.38,-84 97.38,-90 91.38,-90"/>
<text xml:space="preserve" text-anchor="middle" x="66.12" y="-67.7" font-family="TT Commons Pro Trial" font-size="14.00">ARCPNIO</text>
</g>
<!-- ARCPNIO&#45;&gt;ARCPRuntime -->
<g id="edge7" class="edge">
<title>ARCPNIO&#45;&gt;ARCPRuntime</title>
<path fill="none" stroke="black" d="M103.8,-85.91C113.22,-89.83 123.24,-94.31 132.25,-99 148.92,-107.67 166.57,-118.57 181.44,-128.31"/>
<polygon fill="black" stroke="black" points="179.25,-131.06 189.52,-133.67 183.12,-125.22 179.25,-131.06"/>
</g>
<!-- ARCPOTel -->
<g id="node8" class="node">
<title>ARCPOTel</title>
<path fill="none" stroke="black" d="M92.88,-36C92.88,-36 39.37,-36 39.37,-36 33.38,-36 27.38,-30 27.38,-24 27.38,-24 27.38,-12 27.38,-12 27.38,-6 33.38,0 39.38,0 39.38,0 92.88,0 92.88,0 98.88,0 104.88,-6 104.88,-12 104.88,-12 104.88,-24 104.88,-24 104.88,-30 98.88,-36 92.88,-36"/>
<text xml:space="preserve" text-anchor="middle" x="66.12" y="-13.7" font-family="TT Commons Pro Trial" font-size="14.00">ARCPOTel</text>
</g>
<!-- ARCPOTel&#45;&gt;ARCPRuntime -->
<g id="edge8" class="edge">
<title>ARCPOTel&#45;&gt;ARCPRuntime</title>
<path fill="none" stroke="black" d="M105.06,-29.92C114.46,-33.87 124.15,-38.86 132.25,-45 161.2,-66.94 185.78,-100.98 200.95,-124.97"/>
<polygon fill="black" stroke="black" points="197.84,-126.6 206.07,-133.29 203.8,-122.94 197.84,-126.6"/>
</g>
</g>
</svg>
